<mxfile host="app.diagrams.net" modified="2024-03-20T02:24:26.770Z" agent="Mozilla/5.0 (Macintosh; Intel Mac OS X 10_15_7) AppleWebKit/537.36 (KHTML, like Gecko) Chrome/122.0.0.0 Safari/537.36" version="24.0.7" etag="RS2ha1_gEnJkJD95-p7Q" type="github">
  <diagram name="第 1 页" id="zS2kIDN9kzWwSlrpy0Gv">
    <mxGraphModel>
      <root>
        <mxCell id="0" />
        <mxCell id="1" parent="0" />
      </root>
    </mxGraphModel>
  </diagram>
</mxfile>
